<?xml version="1.0" encoding="UTF-8"?>
<svg xmlns="http://www.w3.org/2000/svg" viewBox="0 0 960 640" width="960" height="640" role="img">
  <title>SEO audit dashboard demo</title>
  <rect width="960" height="640" rx="28" fill="#F5F7FB"/>
  <rect x="24" y="24" width="912" height="592" rx="20" fill="#fff" stroke="#E6EAF2"/>
  <text x="828" y="52" fill="#64748B" font-family="Segoe UI, sans-serif" font-size="12" letter-spacing="1.2">DEMO DATA</text>
  
    <rect x="48" y="48" width="180" height="544" rx="16" fill="#F5F7FB"/>
    <text x="72" y="92" fill="#0B1220" font-family="Segoe UI, sans-serif" font-size="16" font-weight="700">SEO 审计</text>
    <text x="72" y="140" fill="#2F6FED" font-family="Segoe UI, sans-serif" font-size="14" font-weight="700">概览</text><text x="72" y="176" fill="#64748B" font-family="Segoe UI, sans-serif" font-size="14" font-weight="500">抓取</text><text x="72" y="212" fill="#64748B" font-family="Segoe UI, sans-serif" font-size="14" font-weight="500">页面</text><text x="72" y="248" fill="#64748B" font-family="Segoe UI, sans-serif" font-size="14" font-weight="500">内链</text><text x="72" y="284" fill="#64748B" font-family="Segoe UI, sans-serif" font-size="14" font-weight="500">Sitemap</text>
    <text x="260" y="92" fill="#0B1220" font-family="Segoe UI, sans-serif" font-size="24" font-weight="720">基础问题</text>
    <text x="260" y="118" fill="#64748B" font-family="Segoe UI, sans-serif" font-size="13">example.com · 示例</text>
    <rect x="260" y="146" width="190" height="88" rx="14" fill="#fff" stroke="#E6EAF2"/>
      <text x="280" y="180" fill="#64748B" font-family="Segoe UI, sans-serif" font-size="13">严重</text>
      <text x="280" y="214" fill="#DC2626" font-family="Segoe UI, sans-serif" font-size="28" font-weight="720">3</text><rect x="470" y="146" width="190" height="88" rx="14" fill="#fff" stroke="#E6EAF2"/>
      <text x="490" y="180" fill="#64748B" font-family="Segoe UI, sans-serif" font-size="13">重要</text>
      <text x="490" y="214" fill="#D97706" font-family="Segoe UI, sans-serif" font-size="28" font-weight="720">8</text><rect x="680" y="146" width="190" height="88" rx="14" fill="#fff" stroke="#E6EAF2"/>
      <text x="700" y="180" fill="#64748B" font-family="Segoe UI, sans-serif" font-size="13">建议</text>
      <text x="700" y="214" fill="#2F6FED" font-family="Segoe UI, sans-serif" font-size="28" font-weight="720">14</text>
    <text x="260" y="280" fill="#64748B" font-family="Segoe UI, sans-serif" font-size="13">抓取与收录</text>
  <text x="510" y="280" fill="#0B1220" font-family="Segoe UI, sans-serif" font-size="13" font-weight="650">可抓取</text>
  <rect x="260" y="290" width="280" height="8" rx="4" fill="#E6EAF2"/>
  <rect x="260" y="290" width="210" height="8" rx="4" fill="#2F6FED"/>
    <text x="260" y="330" fill="#64748B" font-family="Segoe UI, sans-serif" font-size="13">Canonical</text>
  <text x="510" y="330" fill="#0B1220" font-family="Segoe UI, sans-serif" font-size="13" font-weight="650">12 处需核对</text>
  <rect x="260" y="340" width="280" height="8" rx="4" fill="#E6EAF2"/>
  <rect x="260" y="340" width="160" height="8" rx="4" fill="#7C3AED"/>
    <text x="260" y="380" fill="#64748B" font-family="Segoe UI, sans-serif" font-size="13">孤立页面</text>
  <text x="510" y="380" fill="#0B1220" font-family="Segoe UI, sans-serif" font-size="13" font-weight="650">6 个示例</text>
  <rect x="260" y="390" width="280" height="8" rx="4" fill="#E6EAF2"/>
  <rect x="260" y="390" width="120" height="8" rx="4" fill="#D97706"/>
    <text x="260" y="430" fill="#64748B" font-family="Segoe UI, sans-serif" font-size="13">Sitemap</text>
  <text x="510" y="430" fill="#0B1220" font-family="Segoe UI, sans-serif" font-size="13" font-weight="650">已发现</text>
  <rect x="260" y="440" width="280" height="8" rx="4" fill="#E6EAF2"/>
  <rect x="260" y="440" width="190" height="8" rx="4" fill="#15956A"/>
    <rect x="260" y="490" width="620" height="78" rx="14" fill="#F5F7FB"/>
    <text x="284" y="524" fill="#0B1220" font-family="Segoe UI, sans-serif" font-size="15" font-weight="650">Robots、重复内容、图片与语言信号会按页面列出</text>
    <text x="284" y="548" fill="#64748B" font-family="Segoe UI, sans-serif" font-size="13">不是一个总分，是一组可以打开的检查项</text>
  
</svg>
